<svg width="256" height="256" viewBox="0 0 256 256" fill="none" xmlns="http://www.w3.org/2000/svg">
<rect width="256" height="256" fill="white"/>
<path d="M122.803 166.71H79.4903C69.3483 166.71 59.6218 162.63 52.4503 155.366C45.2789 148.103 41.25 138.252 41.25 127.98C41.25 117.708 45.2789 107.857 52.4503 100.594C59.6218 93.3305 69.3483 89.25 79.4903 89.25L122.803 89.25V102.665H79.4903C72.8613 102.665 66.5039 105.333 61.8165 110.08C57.1292 114.827 54.4958 121.266 54.4958 127.98C54.4958 134.694 57.1292 141.133 61.8165 145.88C66.5039 150.628 72.8613 153.295 79.4903 153.295H122.803V166.71Z" fill="#002855"/>
<path fill-rule="evenodd" clip-rule="evenodd" d="M124.379 168.285H79.491C68.9249 168.285 58.7956 164.034 51.3303 156.473C43.8658 148.913 39.6758 138.663 39.6758 127.98C39.6758 117.297 43.8658 107.047 51.3303 99.4872C58.7956 91.9264 68.9249 87.675 79.491 87.675H124.379V104.241H79.491C73.2863 104.241 67.3316 106.737 62.9381 111.187C58.5438 115.637 56.0716 121.678 56.0716 127.98C56.0716 134.283 58.5438 140.323 62.9381 144.774C67.3316 149.223 73.2863 151.72 79.491 151.72H124.379V168.285ZM122.804 166.71V153.295H79.491C72.8621 153.295 66.5047 150.628 61.8173 145.88C57.1299 141.133 54.4966 134.694 54.4966 127.98C54.4966 121.266 57.1299 114.827 61.8173 110.08C66.5047 105.333 72.8621 102.666 79.491 102.666H122.804V89.25H79.491C69.3491 89.25 59.6225 93.3305 52.4511 100.594C45.2797 107.857 41.2508 117.708 41.2508 127.98C41.2508 138.252 45.2797 148.103 52.4511 155.366C59.6225 162.63 69.3491 166.71 79.491 166.71H122.804Z" fill="#002855"/>
<path d="M214.75 166.693V153.267H214.696C211.334 153.326 207.994 152.715 204.871 151.47C201.748 150.225 198.905 148.37 196.507 146.015C194.108 143.66 192.204 140.851 190.903 137.752C189.603 134.653 188.933 131.326 188.933 127.966C188.933 124.605 189.603 121.279 190.903 118.18C192.204 115.081 194.108 112.272 196.507 109.917C198.905 107.561 201.748 105.707 204.871 104.462C207.994 103.217 211.334 102.606 214.696 102.664H214.75V89.2539H214.696C209.563 89.1814 204.467 90.1291 199.704 92.042C194.941 93.9549 190.606 96.7949 186.951 100.397C183.295 103.999 180.393 108.291 178.412 113.024C176.43 117.756 175.41 122.836 175.41 127.966C175.41 133.096 176.43 138.175 178.412 142.908C180.393 147.641 183.295 151.933 186.951 155.535C190.606 159.137 194.941 161.977 199.704 163.89C204.467 165.803 209.618 166.766 214.75 166.693Z" fill="#00E178"/>
<path fill-rule="evenodd" clip-rule="evenodd" d="M216.326 168.246L214.773 168.268C209.431 168.344 204.074 167.341 199.118 165.351C194.161 163.36 189.65 160.405 185.846 156.657C182.042 152.908 179.021 148.442 176.96 143.516C174.898 138.591 173.836 133.305 173.836 127.966C173.836 122.627 174.898 117.341 176.96 112.415C179.021 107.49 182.042 103.023 185.846 99.275C189.65 95.5266 194.161 92.5712 199.118 90.5805C204.071 88.5912 209.37 87.605 214.708 87.6789H216.326V104.239H214.683L214.669 104.239C211.517 104.184 208.384 104.757 205.456 105.925C202.527 107.093 199.86 108.832 197.611 111.04C195.362 113.249 193.576 115.883 192.356 118.789C191.137 121.695 190.509 124.815 190.509 127.966C190.509 131.117 191.137 134.236 192.356 137.142C193.576 140.048 195.362 142.683 197.611 144.891C199.86 147.1 202.527 148.839 205.456 150.007C208.384 151.174 211.517 151.748 214.669 151.692L214.683 151.692H216.326V168.246ZM214.697 89.2539C214.332 89.2487 213.967 89.2487 213.602 89.2539C213.46 89.2559 213.318 89.2587 213.176 89.2622C208.56 89.3782 203.997 90.3182 199.705 92.042C194.942 93.955 190.607 96.7949 186.951 100.397C183.296 103.999 180.394 108.291 178.412 113.024C176.431 117.756 175.411 122.836 175.411 127.966C175.411 133.096 176.431 138.175 178.412 142.908C180.394 147.641 183.296 151.933 186.951 155.535C190.607 159.137 194.942 161.977 199.705 163.89C203.981 165.607 208.569 166.559 213.176 166.683C213.341 166.687 213.506 166.691 213.671 166.693C214.031 166.698 214.391 166.698 214.751 166.693V153.267H214.697C214.402 153.272 214.106 153.272 213.812 153.267C210.75 153.214 207.721 152.606 204.872 151.47C201.749 150.225 198.906 148.37 196.507 146.015C194.109 143.66 192.204 140.851 190.904 137.752C189.604 134.653 188.934 131.326 188.934 127.966C188.934 124.605 189.604 121.279 190.904 118.18C192.204 115.081 194.109 112.272 196.507 109.917C198.906 107.561 201.749 105.707 204.872 104.462C207.721 103.326 210.75 102.718 213.812 102.664C214.106 102.659 214.402 102.659 214.697 102.664H214.751V89.2539H214.697Z" fill="#00E178"/>
<path d="M133.252 89.25V102.661H133.306C136.668 102.602 140.008 103.213 143.131 104.458C146.254 105.703 149.097 107.557 151.496 109.913C153.894 112.268 155.799 115.077 157.099 118.176C158.399 121.275 159.069 124.602 159.069 127.962C159.069 131.322 158.399 134.649 157.099 137.748C155.799 140.847 153.894 143.656 151.496 146.011C149.097 148.366 146.254 150.221 143.131 151.466C140.008 152.711 136.668 153.322 133.306 153.263H133.252V166.689H133.306C143.581 166.689 153.436 162.61 160.701 155.349C167.967 148.087 172.048 138.239 172.048 127.97C172.048 117.701 167.967 107.852 160.701 100.591C153.436 93.3294 143.581 89.25 133.306 89.25H133.252Z" fill="#0096FF"/>
<path fill-rule="evenodd" clip-rule="evenodd" d="M131.676 87.675H133.305C143.997 87.675 154.252 91.9201 161.813 99.4767C169.374 107.033 173.622 117.283 173.622 127.97C173.622 138.657 169.374 148.906 161.813 156.463C154.252 164.019 143.997 168.264 133.305 168.264H131.676V151.688H133.319L133.332 151.689C136.485 151.744 139.618 151.171 142.546 150.003C145.475 148.835 148.142 147.096 150.391 144.887C152.64 142.679 154.426 140.045 155.645 137.139C156.865 134.233 157.493 131.113 157.493 127.962C157.493 124.811 156.865 121.691 155.645 118.785C154.426 115.879 152.64 113.245 150.391 111.036C148.142 108.828 145.475 107.089 142.546 105.921C139.618 104.753 136.485 104.18 133.332 104.235L133.319 104.236H131.676V87.675ZM133.305 102.661C133.6 102.655 133.895 102.655 134.19 102.661C137.252 102.714 140.281 103.322 143.13 104.458C146.253 105.703 149.096 107.557 151.494 109.913C153.893 112.268 155.797 115.077 157.098 118.176C158.398 121.275 159.068 124.602 159.068 127.962C159.068 131.322 158.398 134.649 157.098 137.748C155.797 140.847 153.893 143.656 151.494 146.011C149.096 148.366 146.253 150.221 143.13 151.466C140.281 152.602 137.252 153.21 134.19 153.263C133.895 153.268 133.6 153.268 133.305 153.263H133.251V166.689H133.305C133.813 166.689 134.32 166.679 134.826 166.66C144.548 166.278 153.794 162.251 160.7 155.349C167.966 148.087 172.047 138.239 172.047 127.97C172.047 117.701 167.966 107.852 160.7 100.591C153.794 93.6884 144.548 89.6612 134.826 89.2798C134.32 89.26 133.813 89.25 133.305 89.25H133.251V102.661H133.305Z" fill="#0096FF"/>
</svg>
